<svg width="29" height="21" viewBox="0 0 29 21" fill="none" xmlns="http://www.w3.org/2000/svg">
<path d="M0 18.375V15.125H1.625V13.5H3.25V11.875H4.875V10.25H6.5V8.625H0V7H11.375V10.25H9.75V11.875H8.125V13.5H6.5V15.125H4.875V16.75H11.375V18.375H0Z" fill="#0E0E0E"/>
<path d="M10 5.25V3.75H10.75V3H11.5V2.25H12.25V1.5H13V0.75H10V0H15.25V1.5H14.5V2.25H13.75V3H13V3.75H12.25V4.5H15.25V5.25H10Z" fill="#0E0E0E"/>
<path d="M18 6.375V5.125H18.625V4.5H19.25V3.875H19.875V3.25H20.5V2.625H18V2H22.375V3.25H21.75V3.875H21.125V4.5H20.5V5.125H19.875V5.75H22.375V6.375H18Z" fill="#0E0E0E"/>
</svg>
