<svg width="24" height="24" viewBox="0 0 24 24" fill="none" xmlns="http://www.w3.org/2000/svg">
<path fill-rule="evenodd" clip-rule="evenodd" d="M5.952 0H3.072V3.09677H0V6H3.072H4.608V7.45161H6.144V9H7.488V7.45161H9.024V6.09677H7.488V4.54839H5.952V3.09677V0Z" fill="#0E0E0E"/>
<path fill-rule="evenodd" clip-rule="evenodd" d="M9.024 7.5484H16.512V9.00001H21.024V10.4516H22.464V12.0968H24V16.6452V19.6452H22.656V21.0968H21.12V22.5484H19.68V24H12V22.6452H13.344H14.784H19.104V21.1936H20.544V19.7419H19.104V18.2903H17.664V19.7419H16.224V18.2903H14.784V16.8387H13.344V15.3871H11.904V13.6452H10.464V10.4516H9.024V16.4516H10.464V21.0968H9.024V19.6452V16.6452H7.584V13.3549V12.0968V11.9032V10.4516V9.00001H9.024V7.5484ZM10.56 21.1936V22.5484H11.904V21.1936H10.56ZM13.344 18.2903H14.784V19.7419H13.344V18.2903ZM13.344 18.2903V16.8387H11.904V18.2903H13.344ZM14.784 19.7419H16.224V21.1936H14.784V19.7419ZM17.664 19.7419H19.104V21.1936H17.664V19.7419Z" fill="#0E0E0E"/>
</svg>
