<svg width="10" height="10" viewBox="0 0 10 10" fill="none" xmlns="http://www.w3.org/2000/svg">
<g clip-path="url(#clip0_3_376)">
<path d="M5.75 1.25V8.75H4.625V8.375H4.25V8H3.875V7.625H3.5V7.25H3.125V6.875H2.75V6.5H0.875V3.5H2.75V3.125H3.125V2.75H3.5V2.375H3.875V2H4.25V1.625H4.625V1.25H5.75Z" fill="black"/>
<path d="M8.75 3.5V4.25H8.375V4.625H8V5.375H8.375V5.75H8.75V6.5H8V6.125H7.625V5.75H7.25V6.125H6.875V6.5H6.125V5.75H6.5V5.375H6.875V4.625H6.5V4.25H6.125V3.5H6.875V3.875H7.25V4.25H7.625V3.875H8V3.5H8.75Z" fill="black"/>
</g>
<defs>
<clipPath id="clip0_3_376">
<rect width="9" height="9" fill="white" transform="translate(0.5 0.5)"/>
</clipPath>
</defs>
</svg>
